<svg viewBox="0 0 619.56 256.03" xmlns="http://www.w3.org/2000/svg"><g fill="#fff"><path d="m237.47 30.68a57.35 57.35 0 1 0 57.34 57.32 57.42 57.42 0 0 0 -57.34-57.32zm0 83.65a26.31 26.31 0 1 1 26.3-26.33 26.33 26.33 0 0 1 -26.3 26.33z"/><path d="m445.87 30.68a57.37 57.37 0 0 0 -57.3 56.74v88.77h31v-37.29a57.3 57.3 0 1 0 26.3-108.22zm0 83.59a26.28 26.28 0 1 1 26.27-26.27 26.31 26.31 0 0 1 -26.27 26.27z"/><path d="m567.25 30.68a48.68 48.68 0 0 0 -18 3.44v-34.12h-31v145.37h31v-65.72h.06a17.93 17.93 0 1 1 35.85 0v65.72h31v-65.72a49 49 0 0 0 -48.91-48.97z"/><path d="m309.81 87.59v57.78h31v-57.78a25.89 25.89 0 0 1 25.86-25.87h6.42v-31h-6.42a57 57 0 0 0 -56.86 56.87z"/><path d="m115.82 30.68a48.76 48.76 0 0 0 -33.46 13.32 48.51 48.51 0 0 0 -67.43.67 50.07 50.07 0 0 0 -14.93 35.5v65.2h31v-65.2a18.59 18.59 0 0 1 5.61-13.38 17.27 17.27 0 0 1 12.69-5.1 18 18 0 0 1 17.57 17.46v.5 65.72h31v-65.76c0-.15 0-.3 0-.45a17.91 17.91 0 0 1 35.82.49v65.71h31s0-49.27 0-65.74a49 49 0 0 0 -48.87-48.94z"/><text font-family="SoleilSb, Soleil" font-size="52.71" transform="translate(154.21 238.95)"><tspan letter-spacing="-.02em">P</tspan><tspan x="29.52" y="0">o</tspan><tspan letter-spacing="0em" x="61.57" y="0">w</tspan><tspan x="100.84" y="0">ered by Sensel</tspan></text></g></svg>