<svg id="Layer_1" data-name="Layer 1" xmlns="http://www.w3.org/2000/svg" xmlns:xlink="http://www.w3.org/1999/xlink" viewBox="0 0 558.63 129.64"><defs><style>.cls-1{fill:#75739f;}</style><symbol id="sensel_gray" data-name="sensel_gray" viewBox="0 0 401.58 93.2"><path class="cls-1" d="M3.76,76.94q8.88,10.84,23.33,10.84,10.08,0,16.25-4.44t6.17-10.91a11.21,11.21,0,0,0-1.65-6.1A12.36,12.36,0,0,0,42.74,62a49.46,49.46,0,0,0-6.4-2.71q-2.94-1-7.9-2.18l-7.75-2a58.13,58.13,0,0,1-6.62-2.33A19.71,19.71,0,0,1,8,49.33a19.23,19.23,0,0,1-3.46-4.82,14.56,14.56,0,0,1-1.66-7q0-8.43,7.45-13.85a27.83,27.83,0,0,1,16.78-5.42,36.28,36.28,0,0,1,23.78,8.58l-3.61,4.06a30.11,30.11,0,0,0-19.72-7.22,21.53,21.53,0,0,0-13.17,4.06q-5.49,4.07-5.49,9.78a9.1,9.1,0,0,0,1.28,4.82A12.93,12.93,0,0,0,13,45.71a18.59,18.59,0,0,0,5,2.56A44.32,44.32,0,0,0,23.33,50l6.32,1.51q5,1.2,7.75,2a57.77,57.77,0,0,1,6.7,2.56,21.85,21.85,0,0,1,6,3.69A17.7,17.7,0,0,1,53.8,64.9a16,16,0,0,1,1.58,7.22,17.76,17.76,0,0,1-8.2,15.43Q39,93.2,27.39,93.2q-16.71,0-27.39-12Z"/><path class="cls-1" d="M150.65,19.75h5.72V32.85q8-14.6,25.89-14.6,12.34,0,19.72,7t7.38,19.49v47h-5.72V46.39q0-22.72-22.12-22.73A25,25,0,0,0,164,30.74a23.07,23.07,0,0,0-7.6,17.61V91.69h-5.72Z"/><path class="cls-1" d="M225.8,76.94q8.88,10.84,23.33,10.84,10.08,0,16.25-4.44t6.17-10.91a11.21,11.21,0,0,0-1.66-6.1A12.35,12.35,0,0,0,264.78,62a49.54,49.54,0,0,0-6.4-2.71q-2.94-1-7.9-2.18l-7.75-2a58.13,58.13,0,0,1-6.62-2.33,19.71,19.71,0,0,1-6.1-3.46,19.27,19.27,0,0,1-3.46-4.82,14.57,14.57,0,0,1-1.65-7q0-8.43,7.45-13.85a27.83,27.83,0,0,1,16.78-5.42,36.27,36.27,0,0,1,23.78,8.58l-3.61,4.06a30.1,30.1,0,0,0-19.72-7.22,21.53,21.53,0,0,0-13.17,4.06q-5.49,4.07-5.49,9.78a9.1,9.1,0,0,0,1.28,4.82,12.93,12.93,0,0,0,2.86,3.39,18.59,18.59,0,0,0,5,2.56A44.32,44.32,0,0,0,245.36,50l6.32,1.51q5,1.2,7.75,2a57.77,57.77,0,0,1,6.7,2.56,21.85,21.85,0,0,1,6,3.69,17.7,17.7,0,0,1,3.69,5.12,16,16,0,0,1,1.58,7.22,17.77,17.77,0,0,1-8.2,15.43Q261,93.2,249.43,93.2q-16.7,0-27.39-12Z"/><path class="cls-1" d="M357.57,55.12a36.8,36.8,0,0,0-10.16-26q-10.16-10.91-24.31-10.91-14.45,0-24.76,11A37.32,37.32,0,0,0,288,55.72a36.36,36.36,0,0,0,10.84,26.49,35.26,35.26,0,0,0,26,11c1.41,0,4.14-.21,4.14-.21,10.54-1,18.45-5.59,25.66-14.75l-4.25-3.34c-6.3,8-13.16,12-21.92,12.72-1,.08-1.78.16-3.63.17a29,29,0,0,1-21-8.5,32,32,0,0,1-9.86-21h63.36Zm-63.51-2.26a32.64,32.64,0,0,1,9.41-20.69,26.65,26.65,0,0,1,19.64-8.5,25.77,25.77,0,0,1,19.26,8.5,32.49,32.49,0,0,1,9,20.69Z"/><path class="cls-1" d="M388.39,93.2c-7.24,0-14.73-5.42-14.73-14.5V0h6V78.7c0,5.52,4.5,8.5,8.73,8.5,4.62,0,9.18-3.94,9.22-4l4,4.5C401.33,87.94,395.31,93.2,388.39,93.2Z"/><path class="cls-1" d="M135.31,55.12a36.8,36.8,0,0,0-10.16-26Q115,18.25,100.84,18.25q-14.45,0-24.76,11A37.32,37.32,0,0,0,65.78,55.72,36.36,36.36,0,0,0,76.61,82.21a35.26,35.26,0,0,0,26,11c1.41,0,4.14-.21,4.14-.21,10.54-1,18.45-5.59,25.66-14.75l-4.25-3.34c-6.3,8-13.16,12-21.92,12.72-1,.08-1.78.16-3.63.17a29,29,0,0,1-21-8.5,32,32,0,0,1-9.86-21h63.36ZM71.8,52.86A32.64,32.64,0,0,1,81.2,32.17a26.65,26.65,0,0,1,19.64-8.5,25.77,25.77,0,0,1,19.26,8.5,32.49,32.49,0,0,1,9,20.69Z"/></symbol></defs><title>Artboard 1</title><use width="401.58" height="93.2" transform="translate(0.61) scale(1.39)" xlink:href="#sensel_gray"/></svg>