<svg id="Layer_1" data-name="Layer 1" xmlns="http://www.w3.org/2000/svg" viewBox="0 0 616.21 176.19"><defs><style>.cls-1{fill:#fff;}</style></defs><path class="cls-1" d="M237.47,30.68A57.35,57.35,0,1,0,294.81,88,57.42,57.42,0,0,0,237.47,30.68Zm0,83.65A26.31,26.31,0,1,1,263.77,88,26.33,26.33,0,0,1,237.47,114.33Z"/><path class="cls-1" d="M445.87,30.68a57.37,57.37,0,0,0-57.3,56.74h0v88.77h31V138.9A57.3,57.3,0,1,0,445.87,30.68Zm0,83.59A26.28,26.28,0,1,1,472.14,88,26.31,26.31,0,0,1,445.87,114.27Z"/><path class="cls-1" d="M567.25,30.68a48.68,48.68,0,0,0-18,3.44V0h-31V145.37h31V79.65h.06a17.93,17.93,0,1,1,35.85,0v65.72h31V79.65A49,49,0,0,0,567.25,30.68Z"/><path class="cls-1" d="M309.81,87.59v57.78h31V87.59a25.89,25.89,0,0,1,25.86-25.87h6.42v-31h-6.42A57,57,0,0,0,309.81,87.59Z"/><path class="cls-1" d="M115.82,30.68A48.76,48.76,0,0,0,82.36,44a48.51,48.51,0,0,0-67.43.67A50.07,50.07,0,0,0,0,80.17v65.2H31V80.17a18.59,18.59,0,0,1,5.61-13.38,17.27,17.27,0,0,1,12.69-5.1A18,18,0,0,1,66.87,79.15c0,.17,0,.33,0,.5v65.72h31V79.61h0c0-.15,0-.3,0-.45a17.91,17.91,0,0,1,35.82.49c0,16.47,0,65.71,0,65.71l31,0s0-49.27,0-65.74A49,49,0,0,0,115.82,30.68Z"/></svg>