<svg id="Layer_1" data-name="Layer 1" xmlns="http://www.w3.org/2000/svg" viewBox="0 0 558.63 129.64"><defs><style>.cls-1{fill:#fff;}</style></defs><title>Artboard 1</title><path class="cls-1" d="M5.23,107q12.35,15.07,32.45,15.07,14,0,22.61-6.18t8.58-15.18a15.6,15.6,0,0,0-2.3-8.48,17.19,17.19,0,0,0-7.12-6.07,68.8,68.8,0,0,0-8.9-3.77q-4.08-1.36-11-3Q32,77.51,28.79,76.68a80.86,80.86,0,0,1-9.21-3.25q-6-2.41-8.48-4.81a26.76,26.76,0,0,1-4.81-6.7A20.25,20.25,0,0,1,4,52.18Q4,40.46,14.34,32.92a38.72,38.72,0,0,1,23.34-7.54A50.47,50.47,0,0,1,70.76,37.32l-5,5.65a41.88,41.88,0,0,0-27.43-10A30,30,0,0,0,20,38.57q-7.64,5.66-7.64,13.61a12.65,12.65,0,0,0,1.78,6.7,18,18,0,0,0,4,4.71A25.87,25.87,0,0,0,25,67.15a61.65,61.65,0,0,0,7.43,2.41q2.72.63,8.79,2.1Q48.15,73.33,52,74.48A80.37,80.37,0,0,1,61.34,78a30.39,30.39,0,0,1,8.37,5.13,24.62,24.62,0,0,1,5.13,7.12,22.18,22.18,0,0,1,2.2,10q0,13.61-11.41,21.46T38.1,129.64q-23.24,0-38.1-16.75Z"/><path class="cls-1" d="M209.56,27.48h8V45.69q11.1-20.31,36-20.31,17.17,0,27.43,9.74t10.26,27.11v65.32h-8v-63q0-31.61-30.78-31.61a34.74,34.74,0,0,0-24.39,9.84,32.1,32.1,0,0,0-10.57,24.5v60.29h-8Z"/><path class="cls-1" d="M314.1,107q12.35,15.07,32.45,15.07,14,0,22.61-6.18t8.58-15.18a15.59,15.59,0,0,0-2.3-8.48,17.18,17.18,0,0,0-7.12-6.07,68.91,68.91,0,0,0-8.9-3.77q-4.08-1.36-11-3-7.54-1.88-10.78-2.72a80.86,80.86,0,0,1-9.21-3.25q-6-2.41-8.48-4.81a26.8,26.8,0,0,1-4.82-6.7,20.27,20.27,0,0,1-2.3-9.74q0-11.72,10.36-19.26a38.72,38.72,0,0,1,23.34-7.54,50.46,50.46,0,0,1,33.08,11.93l-5,5.65a41.87,41.87,0,0,0-27.43-10,30,30,0,0,0-18.32,5.65q-7.64,5.66-7.64,13.61a12.65,12.65,0,0,0,1.78,6.7,18,18,0,0,0,4,4.71,25.87,25.87,0,0,0,6.91,3.56,61.65,61.65,0,0,0,7.43,2.41q2.72.63,8.79,2.1,6.91,1.67,10.78,2.83A80.37,80.37,0,0,1,370.21,78a30.39,30.39,0,0,1,8.37,5.13,24.62,24.62,0,0,1,5.13,7.12,22.18,22.18,0,0,1,2.2,10q0,13.61-11.41,21.46T347,129.64q-23.24,0-38.1-16.75Z"/><path class="cls-1" d="M497.41,76.68a51.19,51.19,0,0,0-14.13-36.11q-14.13-15.18-33.81-15.18-20.1,0-34.44,15.28T400.69,77.51a50.57,50.57,0,0,0,15.07,36.85q15.07,15.28,36.22,15.28c2,0,5.76-.29,5.76-.29,14.66-1.37,25.67-7.77,35.7-20.52l-5.91-4.65c-8.77,11.15-18.3,16.64-30.49,17.69-1.36.12-2.48.22-5.06.24a40.37,40.37,0,0,1-29.2-11.83,44.46,44.46,0,0,1-13.71-29.2H497.2Zm-88.35-3.14a45.4,45.4,0,0,1,13.08-28.79q11.62-11.83,27.32-11.83,15.49,0,26.8,11.83a45.2,45.2,0,0,1,12.56,28.79Z"/><path class="cls-1" d="M540.27,129.64c-10.07,0-20.49-7.54-20.49-20.17V0h8.35V109.47c0,7.68,6.26,11.82,12.14,11.82,6.43,0,12.77-5.48,12.83-5.53l5.52,6.26C558.27,122.34,549.9,129.64,540.27,129.64Z"/><path class="cls-1" d="M188.22,76.68a51.19,51.19,0,0,0-14.13-36.11Q160,25.38,140.28,25.38q-20.1,0-34.44,15.28T91.5,77.51a50.57,50.57,0,0,0,15.07,36.85q15.07,15.28,36.22,15.28c2,0,5.76-.29,5.76-.29,14.66-1.37,25.67-7.77,35.7-20.52l-5.91-4.65c-8.77,11.15-18.3,16.64-30.49,17.69-1.36.12-2.48.22-5.06.24a40.37,40.37,0,0,1-29.2-11.83,44.46,44.46,0,0,1-13.71-29.2H188ZM99.87,73.54A45.4,45.4,0,0,1,113,44.75q11.62-11.83,27.32-11.83,15.49,0,26.8,11.83a45.2,45.2,0,0,1,12.56,28.79Z"/></svg>